<svg width="15" height="31" viewBox="0 0 15 31" fill="none" xmlns="http://www.w3.org/2000/svg">
<path d="M8.5 1C8.5 0.447715 8.05228 -2.41411e-08 7.5 0C6.94772 2.41411e-08 6.5 0.447715 6.5 1L8.5 1ZM6.79289 30.7071C7.18342 31.0976 7.81658 31.0976 8.20711 30.7071L14.5711 24.3431C14.9616 23.9526 14.9616 23.3195 14.5711 22.9289C14.1805 22.5384 13.5474 22.5384 13.1569 22.9289L7.5 28.5858L1.84315 22.9289C1.45262 22.5384 0.819458 22.5384 0.428933 22.9289C0.0384088 23.3195 0.0384088 23.9526 0.428933 24.3431L6.79289 30.7071ZM7.5 1L6.5 1L6.5 30L7.5 30L8.5 30L8.5 1L7.5 1Z" fill="#464A94"/>
</svg>
