<svg width="34" height="34" viewBox="0 0 34 34" fill="none" xmlns="http://www.w3.org/2000/svg">
<path fill-rule="evenodd" clip-rule="evenodd" d="M1.7 17C1.7 25.45 8.55004 32.3 17 32.3C25.45 32.3 32.3 25.45 32.3 17C32.3 8.55004 25.45 1.7 17 1.7C8.55004 1.7 1.7 8.55004 1.7 17ZM0 17C0 26.3888 7.61116 34 17 34C26.3888 34 34 26.3888 34 17C34 7.61116 26.3888 0 17 0C7.61116 0 0 7.61116 0 17Z" fill="#464A94"/>
<path fill-rule="evenodd" clip-rule="evenodd" d="M17 11.3333L24.6014 18.9347L22.9986 20.5375L17 14.5389L11.0014 20.5375L9.39863 18.9347L17 11.3333Z" fill="#464A94"/>
</svg>
