<svg width="32" height="40" viewBox="0 0 32 40" fill="none" xmlns="http://www.w3.org/2000/svg">
<path d="M1.95808 5.68653C7.53812 4.97854 10.5143 4.03019 15.2331 1.61556C15.3864 1.53715 15.5711 1.53714 15.7243 1.61553C20.4449 4.0302 23.4699 4.97855 29.0526 5.68654C29.3194 5.72038 29.5213 5.94695 29.5213 6.21592V20.1596C29.2743 26.2195 27.8228 28.8696 23.4043 32.5532L15.7957 38.1703C15.6074 38.3093 15.3504 38.3089 15.1625 38.1692L7.6064 32.5532C3.18787 28.8696 1.73641 26.2195 1.48938 20.1596V6.21592C1.48938 5.94695 1.69125 5.72038 1.95808 5.68653Z" stroke="#464A94" stroke-width="2.87234"/>
<path d="M15.012 7.1065C15.9425 7.14097 16.8816 7.31329 17.8294 7.62346C18.7944 7.9164 19.6818 8.39889 20.4917 9.07093C21.3016 9.72574 21.9909 10.5787 22.5595 11.6299C23.1282 12.6638 23.4814 13.9303 23.6193 15.4295C23.7399 16.6529 23.5848 17.8678 23.154 19.074C22.7405 20.263 22.1632 21.3572 21.4222 22.3567C20.6813 23.3561 19.8283 24.2091 18.8633 24.9156C17.8983 25.6049 16.9333 26.0615 15.9684 26.2855C15.3825 26.4234 14.7363 26.4406 14.0298 26.3372C13.3405 26.2166 12.634 26.0012 11.9103 25.691C11.2038 25.3636 10.5059 24.9501 9.8166 24.4503C9.14456 23.9506 8.53283 23.382 7.98141 22.7444C7.42999 22.0896 6.96473 21.3831 6.58563 20.6249C6.22376 19.8667 5.99975 19.074 5.91359 18.2469C5.82743 17.5576 5.81881 16.7994 5.88774 15.9723C5.9739 15.1279 6.1376 14.2922 6.37885 13.465C6.63733 12.6207 6.99058 11.8108 7.43861 11.0354C7.90387 10.2427 8.48975 9.55342 9.19625 8.96754C9.90276 8.36443 10.7299 7.89917 11.6776 7.57176C12.6426 7.22713 13.7541 7.07204 15.012 7.1065ZM10.3852 17.5748C10.144 19.4186 10.3163 20.9006 10.9022 22.0207C11.5053 23.1407 12.41 23.8214 13.6162 24.0626C14.2021 24.1832 14.7621 24.0626 15.2963 23.7008C15.8477 23.3217 16.3475 22.7789 16.7955 22.0723C17.2435 21.3658 17.6312 20.5387 17.9586 19.591C18.286 18.6432 18.5273 17.6524 18.6824 16.6185C18.8375 15.5846 18.8461 14.654 18.7082 13.8269C18.5876 12.9826 18.3722 12.2674 18.062 11.6816C17.7519 11.0784 17.3728 10.6132 16.9247 10.2858C16.4939 9.95837 16.0459 9.77744 15.5806 9.74297C14.7708 9.69128 14.0642 9.90668 13.4611 10.3892C12.858 10.8544 12.3497 11.4662 11.9361 12.2244C11.5226 12.9826 11.1865 13.8355 10.9281 14.7833C10.6868 15.731 10.5059 16.6616 10.3852 17.5748Z" fill="#464A94"/>
<path d="M11.4744 12.6433C11.9741 12.7295 12.4135 12.7898 12.7926 12.8243C13.1889 12.8587 13.5163 12.8846 13.7748 12.9018C14.085 12.919 14.3521 12.9276 14.5761 12.9276C14.8001 12.9276 15.1189 12.9104 15.5324 12.8759C15.8771 12.8415 16.3251 12.7984 16.8765 12.7467C17.4452 12.695 18.1431 12.6089 18.9702 12.4882C18.729 12.5572 18.5049 12.7553 18.2982 13.0827C18.1086 13.3929 17.9363 13.7289 17.7812 14.0908C17.5917 14.5216 17.4279 14.9955 17.2901 15.5124C17.1695 15.9777 17.0144 16.6153 16.8248 17.4252C16.6525 18.235 16.4802 19.1139 16.3079 20.0616C16.1528 21.0094 16.0322 21.9744 15.946 22.9566C15.8599 23.9216 15.8426 24.809 15.8943 25.6189C15.9632 26.4288 16.1269 27.1008 16.3854 27.635C16.6439 28.152 17.0402 28.4277 17.5744 28.4621C18.3843 28.5311 19.0564 28.5397 19.5905 28.488C20.142 28.4191 20.59 28.3243 20.9346 28.2037C21.2793 28.083 21.5464 27.9452 21.7359 27.7901C21.9255 27.6178 22.0719 27.4541 22.1753 27.299C22.451 26.9027 22.7354 26.3943 23.0283 25.774C23.3212 25.1536 23.5797 24.5591 23.8037 23.9905C24.045 23.4218 24.2431 22.9393 24.3982 22.543C24.5533 22.1467 24.6309 21.9571 24.6309 21.9744C24.6309 22.0088 24.6222 22.207 24.605 22.5689C24.605 22.9135 24.5964 23.3357 24.5792 23.8354C24.5792 24.3179 24.5705 24.8262 24.5533 25.3604C24.5533 25.8946 24.5447 26.3512 24.5275 26.7303C24.5102 27.0405 24.493 27.3852 24.4758 27.7643C24.4585 28.0917 24.4413 28.4794 24.4241 28.9274C24.4241 29.3754 24.4068 29.8665 24.3724 30.4007C23.6486 30.349 22.9594 30.3146 22.3046 30.2973C21.6497 30.2801 21.0725 30.2715 20.5728 30.2715C19.9869 30.2715 19.4441 30.2801 18.9444 30.2973C18.4102 30.3146 17.7898 30.3404 17.0833 30.3749C16.4802 30.4093 15.7306 30.4524 14.8346 30.5041C13.9385 30.5386 12.9046 30.5903 11.7328 30.6592C11.8707 30.418 11.9827 30.1939 12.0689 29.9872C12.1722 29.7804 12.2498 29.6081 12.3015 29.4702C12.3704 29.2979 12.4135 29.1514 12.4307 29.0308C12.5341 28.4794 12.6203 27.7815 12.6892 26.9371C12.7581 26.0755 12.8098 25.1622 12.8443 24.1973C12.896 23.2323 12.9218 22.2501 12.9218 21.2506C12.9391 20.2339 12.9391 19.2948 12.9218 18.4332C12.9046 17.5716 12.8701 16.822 12.8184 16.1845C12.784 15.5469 12.7323 15.1075 12.6633 14.8662C12.5772 14.5905 12.4738 14.3148 12.3532 14.0391C12.2498 13.7979 12.1205 13.5566 11.9655 13.3154C11.8276 13.0569 11.6639 12.8329 11.4744 12.6433Z" fill="#464A94"/>
</svg>
